<svg width="55" height="55" viewBox="0 0 55 55" fill="none" xmlns="http://www.w3.org/2000/svg">
<rect x="0.5" y="0.5" width="54" height="54" rx="11.5" stroke="#1AB44F"/>
<path d="M32.8147 26.7947L27.6589 18.3494C27.5841 18.2414 27.4853 18.1533 27.3707 18.0925C27.2561 18.0317 27.129 18 27 18C26.871 18 26.7439 18.0317 26.6293 18.0925C26.5147 18.1533 26.4159 18.2414 26.3411 18.3494L21.1621 26.8357C20.4427 28.0291 20.0419 29.3965 20 30.8001C20 32.7096 20.7375 34.5409 22.0503 35.8912C23.363 37.2414 25.1435 38 27 38C28.8565 38 30.637 37.2414 31.9497 35.8912C33.2625 34.5409 34 32.7096 34 30.8001C33.9553 29.3808 33.5464 27.9989 32.8147 26.7947ZM27 36.4004C25.5566 36.3985 24.1729 35.8079 23.1522 34.7582C22.1316 33.7084 21.5574 32.2851 21.5556 30.8005C21.5969 29.6815 21.9237 28.5934 22.5031 27.6455L23.2303 26.4545L31.0655 34.5129C30.5566 35.1059 29.9309 35.5808 29.23 35.9062C28.5291 36.2316 27.769 36.4 27 36.4004Z" fill="#1AB44F"/>
</svg>
