<svg width="55" height="55" viewBox="0 0 55 55" fill="none" xmlns="http://www.w3.org/2000/svg">
<path d="M43 0.5H12C5.64873 0.5 0.5 5.64873 0.5 12V43C0.5 49.3513 5.64873 54.5 12 54.5H43C49.3513 54.5 54.5 49.3513 54.5 43V12C54.5 5.64873 49.3513 0.5 43 0.5Z" stroke="#1AB44F"/>
<path d="M31.9774 32.6059C34.4369 32.6059 36.754 31.6824 38.5073 30.0118C40.2729 28.3353 41.2394 26.1177 41.2394 23.7706C41.2394 18.9353 37.0823 15 31.9712 15C30.1498 15 28.3903 15.4941 26.8786 16.4235C25.5343 17.2529 24.4439 18.4 23.7066 19.7529C23.0747 19.5706 22.4242 19.4824 21.687 19.4824C19.8346 19.4824 18.0999 20.1529 16.7927 21.3824C15.4792 22.6176 14.7544 24.2706 14.7544 26.0412C14.7544 29.6647 17.8644 32.6059 21.687 32.6059H31.9774ZM15.9935 26.0471C15.9935 23.0765 18.5459 20.6588 21.687 20.6588C22.4738 20.6588 23.1429 20.7765 23.7872 21.0353C24.0969 21.1588 24.4563 21.0235 24.5926 20.7294C25.875 17.9647 28.7744 16.1824 31.9774 16.1824C36.407 16.1824 40.0065 19.5882 40.0065 23.7765C40.0065 28 36.407 31.4353 31.9774 31.4353H21.687C18.5459 31.4353 15.9935 29.0176 15.9935 26.0471Z" fill="#1AB44F"/>
<path d="M22.0029 35.3119L20.4851 36.806C20.2497 37.0354 20.2558 37.4119 20.5037 37.6354C20.6214 37.7471 20.7763 37.8001 20.9311 37.8001C21.0922 37.8001 21.2533 37.7413 21.3772 37.6177L22.8951 36.1236C23.1305 35.8942 23.1243 35.5177 22.8765 35.2942C22.6349 35.0707 22.2383 35.0766 22.0029 35.3119Z" fill="#1AB44F"/>
<path d="M28.316 35.3119L26.7981 36.806C26.5627 37.0354 26.5689 37.4119 26.8167 37.6354C26.9344 37.7471 27.0893 37.8001 27.2442 37.8001C27.4052 37.8001 27.5663 37.7413 27.6902 37.6177L29.2081 36.1236C29.4435 35.8942 29.4373 35.5177 29.1895 35.2942C28.9479 35.0707 28.5514 35.0766 28.316 35.3119Z" fill="#1AB44F"/>
<path d="M34.629 35.3119L33.1111 36.806C32.8757 37.0354 32.8819 37.4119 33.1297 37.6354C33.2474 37.7471 33.4023 37.8001 33.5572 37.8001C33.7183 37.8001 33.8794 37.7413 34.0033 37.6177L35.5211 36.1236C35.7565 35.8942 35.7503 35.5177 35.5025 35.2942C35.2609 35.0707 34.8644 35.0766 34.629 35.3119Z" fill="#1AB44F"/>
<path d="M41.8094 35.2942C41.5678 35.0707 41.1713 35.0766 40.9358 35.3119L39.418 36.806C39.1826 37.0354 39.1888 37.4119 39.4366 37.6354C39.5543 37.7471 39.7092 37.8001 39.864 37.8001C40.0313 37.8001 40.1924 37.7413 40.3101 37.6177L41.828 36.1236C42.0634 35.8942 42.0572 35.5177 41.8094 35.2942Z" fill="#1AB44F"/>
<path d="M15.6899 35.3119L14.172 36.806C13.9366 37.0354 13.9428 37.4119 14.1906 37.6354C14.3083 37.7471 14.4632 37.8001 14.6181 37.8001C14.7792 37.8001 14.9403 37.7413 15.0642 37.6177L16.582 36.1236C16.8174 35.8942 16.8112 35.5177 16.5634 35.2942C16.3218 35.0707 15.9253 35.0766 15.6899 35.3119Z" fill="#1AB44F"/>
<path d="M25.1625 40.5646L23.6447 41.9999C23.4031 42.2293 23.4031 42.5999 23.6447 42.8293C23.7686 42.9411 23.9235 42.9999 24.0846 42.9999C24.2456 42.9999 24.4005 42.9411 24.5182 42.8293L26.0361 41.394C26.2777 41.1646 26.2777 40.794 26.0361 40.5646C25.7945 40.3352 25.4042 40.3352 25.1625 40.5646Z" fill="#1AB44F"/>
<path d="M31.4756 40.5646L29.9577 41.9999C29.7161 42.2293 29.7161 42.5999 29.9577 42.8293C30.0816 42.9411 30.2365 42.9999 30.3976 42.9999C30.5587 42.9999 30.7135 42.9411 30.8313 42.8293L32.3491 41.394C32.5907 41.1646 32.5907 40.794 32.3491 40.5646C32.1075 40.3352 31.7172 40.3352 31.4756 40.5646Z" fill="#1AB44F"/>
<path d="M37.7886 40.5646L36.2708 41.9999C36.0291 42.2293 36.0291 42.5999 36.2708 42.8293C36.3947 42.9411 36.5495 42.9999 36.7106 42.9999C36.8717 42.9999 37.0266 42.9411 37.1443 42.8293L38.6621 41.394C38.9038 41.1646 38.9038 40.794 38.6621 40.5646C38.4205 40.3352 38.0302 40.3352 37.7886 40.5646Z" fill="#1AB44F"/>
<path d="M18.8495 40.5646L17.3316 41.9999C17.09 42.2293 17.09 42.5999 17.3316 42.8293C17.4556 42.9411 17.6104 42.9999 17.7715 42.9999C17.9326 42.9999 18.0937 42.9411 18.2052 42.8293L19.723 41.394C19.9647 41.1646 19.9647 40.794 19.723 40.5646C19.4814 40.3352 19.0911 40.3352 18.8495 40.5646Z" fill="#1AB44F"/>
</svg>
