<svg width="55" height="55" viewBox="0 0 55 55" fill="none" xmlns="http://www.w3.org/2000/svg">
<rect x="0.5" y="0.5" width="54" height="54" rx="11.5" stroke="#1AB44F"/>
<path d="M27.5 23.2466C28.3412 23.2466 29.1636 23.496 29.863 23.9634C30.5625 24.4308 31.1077 25.095 31.4296 25.8722C31.7515 26.6494 31.8357 27.5046 31.6716 28.3297C31.5075 29.1548 31.1024 29.9126 30.5076 30.5075C29.9127 31.1023 29.1549 31.5074 28.3298 31.6715C27.5047 31.8356 26.6495 31.7514 25.8723 31.4295C25.0951 31.1076 24.4309 30.5624 23.9635 29.8629C23.4961 29.1635 23.2467 28.3411 23.2467 27.4999C23.2499 26.3728 23.699 25.2928 24.496 24.4959C25.2929 23.6989 26.3729 23.2498 27.5 23.2466M27.5 21.4583C26.3051 21.4583 25.137 21.8126 24.1434 22.4765C23.1499 23.1403 22.3755 24.0839 21.9182 25.1879C21.461 26.2918 21.3413 27.5066 21.5744 28.6786C21.8076 29.8506 22.383 30.9271 23.2279 31.772C24.0729 32.617 25.1494 33.1924 26.3213 33.4255C27.4933 33.6586 28.7081 33.539 29.8121 33.0817C30.916 32.6244 31.8596 31.85 32.5235 30.8565C33.1873 29.8629 33.5417 28.6948 33.5417 27.4999C33.5417 25.8976 32.9051 24.3608 31.7721 23.2278C30.6391 22.0948 29.1024 21.4583 27.5 21.4583V21.4583Z" fill="#1AB44F"/>
<path d="M27.5 39.5833C27.2606 39.5802 27.0319 39.4837 26.8626 39.3144C26.6934 39.1451 26.5969 38.9164 26.5938 38.6771V35.5596C26.5938 35.3192 26.6892 35.0887 26.8592 34.9188C27.0291 34.7488 27.2596 34.6533 27.5 34.6533C27.7404 34.6533 27.9709 34.7488 28.1408 34.9188C28.3108 35.0887 28.4063 35.3192 28.4063 35.5596V38.6771C28.4031 38.9164 28.3066 39.1451 28.1374 39.3144C27.9681 39.4837 27.7394 39.5802 27.5 39.5833V39.5833Z" fill="#1AB44F"/>
<path d="M39.5833 27.5C39.5802 27.7394 39.4837 27.9681 39.3144 28.1374C39.1451 28.3066 38.9164 28.4031 38.6771 28.4063H35.5596C35.3192 28.4063 35.0887 28.3108 34.9188 28.1408C34.7488 27.9709 34.6533 27.7404 34.6533 27.5C34.6533 27.2596 34.7488 27.0291 34.9188 26.8592C35.0887 26.6892 35.3192 26.5938 35.5596 26.5938H38.6771C38.9164 26.5969 39.1451 26.6934 39.3144 26.8626C39.4837 27.0319 39.5802 27.2606 39.5833 27.5V27.5Z" fill="#1AB44F"/>
<path d="M20.3467 27.5C20.3435 27.7394 20.247 27.9681 20.0778 28.1374C19.9085 28.3066 19.6798 28.4031 19.4404 28.4063H16.3229C16.0826 28.4063 15.852 28.3108 15.6821 28.1408C15.5121 27.9709 15.4167 27.7404 15.4167 27.5C15.4167 27.2596 15.5121 27.0291 15.6821 26.8592C15.852 26.6892 16.0826 26.5938 16.3229 26.5938H19.4404C19.6798 26.5969 19.9085 26.6934 20.0778 26.8626C20.247 27.0319 20.3435 27.2606 20.3467 27.5V27.5Z" fill="#1AB44F"/>
<path d="M27.5 20.3467C27.2606 20.3436 27.0319 20.2471 26.8626 20.0779C26.6934 19.9086 26.5969 19.6799 26.5938 19.4405V16.323C26.5938 16.0826 26.6892 15.8521 26.8592 15.6822C27.0291 15.5122 27.2596 15.4167 27.5 15.4167C27.7404 15.4167 27.9709 15.5122 28.1408 15.6822C28.3108 15.8521 28.4063 16.0826 28.4063 16.323V19.4405C28.4031 19.6799 28.3066 19.9086 28.1374 20.0779C27.9681 20.2471 27.7394 20.3436 27.5 20.3467V20.3467Z" fill="#1AB44F"/>
<path d="M18.945 36.0429C18.7753 35.8729 18.68 35.6426 18.68 35.4025C18.68 35.1623 18.7753 34.932 18.945 34.762L21.1442 32.5629C21.2275 32.4774 21.3271 32.4094 21.437 32.363C21.547 32.3166 21.6652 32.2927 21.7846 32.2927C21.904 32.2927 22.0221 32.3166 22.1321 32.363C22.2421 32.4094 22.3417 32.4774 22.425 32.5629C22.5947 32.7328 22.69 32.9631 22.69 33.2033C22.69 33.4434 22.5947 33.6738 22.425 33.8437L20.25 36.0429C20.1655 36.1306 20.0641 36.2003 19.952 36.248C19.8399 36.2956 19.7193 36.3202 19.5975 36.3202C19.4757 36.3202 19.3551 36.2956 19.243 36.248C19.1309 36.2003 19.0295 36.1306 18.945 36.0429V36.0429Z" fill="#1AB44F"/>
<path d="M36.0308 36.0428C35.8609 36.2125 35.6306 36.3078 35.3904 36.3078C35.1503 36.3078 34.9199 36.2125 34.75 36.0428L32.5508 33.8436C32.3908 33.6718 32.3036 33.4446 32.3078 33.2098C32.3119 32.9751 32.407 32.7511 32.5731 32.585C32.7391 32.419 32.9631 32.3239 33.1979 32.3197C33.4327 32.3156 33.6599 32.4027 33.8317 32.5628L36.0308 34.7499C36.1167 34.8342 36.1849 34.9349 36.2314 35.0458C36.278 35.1568 36.302 35.276 36.302 35.3963C36.302 35.5167 36.278 35.6359 36.2314 35.7469C36.1849 35.8578 36.1167 35.9585 36.0308 36.0428V36.0428Z" fill="#1AB44F"/>
<path d="M22.425 22.437C22.2551 22.6067 22.0247 22.702 21.7846 22.702C21.5444 22.702 21.3141 22.6067 21.1442 22.437L18.945 20.2499C18.7753 20.08 18.68 19.8496 18.68 19.6095C18.68 19.3693 18.7753 19.139 18.945 18.9691C19.0278 18.879 19.1282 18.8069 19.24 18.7573C19.3518 18.7076 19.4726 18.6813 19.5949 18.6802C19.7172 18.6791 19.8385 18.7031 19.9511 18.7507C20.0638 18.7983 20.1655 18.8685 20.25 18.957L22.425 21.1561C22.5947 21.3261 22.69 21.5564 22.69 21.7966C22.69 22.0367 22.5947 22.2671 22.425 22.437V22.437Z" fill="#1AB44F"/>
<path d="M32.5508 22.4372C32.4653 22.3538 32.3974 22.2543 32.351 22.1443C32.3046 22.0343 32.2807 21.9161 32.2807 21.7967C32.2807 21.6774 32.3046 21.5592 32.351 21.4492C32.3974 21.3392 32.4653 21.2396 32.5508 21.1563L34.75 18.9572C34.8333 18.8717 34.9329 18.8037 35.0429 18.7573C35.1529 18.7109 35.2711 18.687 35.3904 18.687C35.5098 18.687 35.628 18.7109 35.738 18.7573C35.848 18.8037 35.9475 18.8717 36.0308 18.9572C36.2006 19.1271 36.2959 19.3574 36.2959 19.5976C36.2959 19.8377 36.2006 20.0681 36.0308 20.238L33.8317 22.4372C33.6618 22.6069 33.4314 22.7022 33.1913 22.7022C32.9511 22.7022 32.7208 22.6069 32.5508 22.4372V22.4372Z" fill="#1AB44F"/>
</svg>
