<svg width="56" height="55" viewBox="0 0 56 55" fill="none" xmlns="http://www.w3.org/2000/svg">
<rect x="1.21887" y="0.5" width="54" height="54" rx="11.5" stroke="#1AB44F"/>
<path d="M25.7811 21.1899C25.7811 20.0854 26.6766 19.1899 27.7811 19.1899V17.1899C25.572 17.1899 23.7811 18.9808 23.7811 21.1899H25.7811ZM25.7811 27.5495V21.1899H23.7811V27.5495H25.7811ZM23.4075 32.4651C23.4075 31.1715 24.01 29.9896 25.0068 29.1567L23.7243 27.622C22.3163 28.7986 21.4075 30.5244 21.4075 32.4651H23.4075ZM28.3416 36.9556C25.542 36.9556 23.4075 34.8734 23.4075 32.4651H21.4075C21.4075 36.1215 24.5866 38.9556 28.3416 38.9556V36.9556ZM33.2758 32.4651C33.2758 34.8734 31.1413 36.9556 28.3416 36.9556V38.9556C32.0967 38.9556 35.2758 36.1215 35.2758 32.4651H33.2758ZM31.6765 29.1567C32.6733 29.9896 33.2758 31.1715 33.2758 32.4651H35.2758C35.2758 30.5244 34.367 28.7986 32.959 27.622L31.6765 29.1567ZM30.9021 21.1899V27.5495H32.9021V21.1899H30.9021ZM28.9021 19.1899C30.0067 19.1899 30.9021 20.0854 30.9021 21.1899H32.9021C32.9021 18.9808 31.1113 17.1899 28.9021 17.1899V19.1899ZM27.7811 19.1899H28.9021V17.1899H27.7811V19.1899ZM32.959 27.622C32.931 27.5986 32.9149 27.5757 32.9073 27.5608C32.9004 27.5471 32.9021 27.5439 32.9021 27.5495H30.9021C30.9021 28.2195 31.2358 28.7884 31.6765 29.1567L32.959 27.622ZM23.7811 27.5495C23.7811 27.5439 23.7829 27.5471 23.7759 27.5608C23.7683 27.5757 23.7523 27.5986 23.7243 27.622L25.0068 29.1567C25.4475 28.7884 25.7811 28.2195 25.7811 27.5495H23.7811Z" fill="#1AB44F"/>
<ellipse cx="28.3416" cy="32.4652" rx="2.37367" ry="2.19618" fill="#1AB44F"/>
</svg>
